<?xml version="1.0" encoding="UTF-8"?>
<svg width="32" height="32" viewBox="0 0 32 32" fill="none" xmlns="http://www.w3.org/2000/svg">
  <path d="M22 14C23.1046 14 24 13.1046 24 12C24 10.8954 23.1046 10 22 10C20.8954 10 20 10.8954 20 12C20 13.1046 20.8954 14 22 14Z" fill="#4A6741"/>
  <path d="M28 16C29.1046 16 30 15.1046 30 14C30 12.8954 29.1046 12 28 12C26.8954 12 26 12.8954 26 14C26 15.1046 26.8954 16 28 16Z" fill="#4A6741"/>
  <path d="M26 22C27.1046 22 28 21.1046 28 20C28 18.8954 27.1046 18 26 18C24.8954 18 24 18.8954 24 20C24 21.1046 24.8954 22 26 22Z" fill="#4A6741"/>
  <path d="M16 30C17.1046 30 18 29.1046 18 28C18 26.8954 17.1046 26 16 26C14.8954 26 14 26.8954 14 28C14 29.1046 14.8954 30 16 30Z" fill="#4A6741"/>
  <path d="M6 14C7.10457 14 8 13.1046 8 12C8 10.8954 7.10457 10 6 10C4.89543 10 4 10.8954 4 12C4 13.1046 4.89543 14 6 14Z" fill="#4A6741"/>
  <path d="M8 22C9.10457 22 10 21.1046 10 20C10 18.8954 9.10457 18 8 18C6.89543 18 6 18.8954 6 20C6 21.1046 6.89543 22 8 22Z" fill="#4A6741"/>
  <path d="M16 4C16 4 9 10 9 18C9 21.1826 10.2643 24.2348 12.5147 26.4853C14.7652 28.7357 17.8174 30 21 30" stroke="#4A6741" stroke-width="2" stroke-linecap="round" stroke-linejoin="round"/>
  <path d="M16 4C16 4 23 10 23 18C23 21.1826 21.7357 24.2348 19.4853 26.4853C17.2348 28.7357 14.1826 30 11 30" stroke="#4A6741" stroke-width="2" stroke-linecap="round" stroke-linejoin="round"/>
</svg>