<?xml version="1.0" encoding="UTF-8"?>
<svg width="32" height="32" viewBox="0 0 32 32" fill="none" xmlns="http://www.w3.org/2000/svg">
  <path d="M14 28C14 28 16 22 16 18C16 14 14.5 14 14 14C13.5 14 12 14 12 18C12 22 14 28 14 28Z" fill="#4A6741"/>
  <path d="M18 28C18 28 20 22 20 18C20 14 18.5 14 18 14C17.5 14 16 14 16 18C16 22 18 28 18 28Z" fill="#4A6741"/>
  <path d="M10 26C10 26 12 20 12 16C12 12 10.5 12 10 12C9.5 12 8 12 8 16C8 20 10 26 10 26Z" fill="#4A6741"/>
  <path d="M22 26C22 26 24 20 24 16C24 12 22.5 12 22 12C21.5 12 20 12 20 16C20 20 22 26 22 26Z" fill="#4A6741"/>
  <path d="M16 14C16 14 17 11 20 11C23 11 24 14 24 14" stroke="#4A6741" stroke-width="1.5"/>
  <path d="M8 10C8 10 9 12 10 12C11 12 12 10 12 10" stroke="#4A6741" stroke-width="1.5"/>
  <path d="M12 6C12 6 13 8 14 8C15 8 16 6 16 6" stroke="#4A6741" stroke-width="1.5"/>
  <path d="M16 6C16 6 17 8 18 8C19 8 20 6 20 6" stroke="#4A6741" stroke-width="1.5"/>
  <path d="M20 6C20 6 21 8 22 8C23 8 24 6 24 6" stroke="#4A6741" stroke-width="1.5"/>
  <path d="M14 28C14 28 16 30 18 30C20 30 22 28 22 28" stroke="#4A6741" stroke-width="1.5"/>
</svg>