<?xml version="1.0" encoding="UTF-8"?>
<svg width="32" height="32" viewBox="0 0 32 32" fill="none" xmlns="http://www.w3.org/2000/svg">
  <path d="M22 17C24.2091 17 26 15.2091 26 13C26 10.7909 24.2091 9 22 9C19.7909 9 18 10.7909 18 13C18 15.2091 19.7909 17 22 17Z" stroke="#4A6741" stroke-width="2" stroke-linecap="round" stroke-linejoin="round"/>
  <path d="M10 17C12.2091 17 14 15.2091 14 13C14 10.7909 12.2091 9 10 9C7.79086 9 6 10.7909 6 13C6 15.2091 7.79086 17 10 17Z" stroke="#4A6741" stroke-width="2" stroke-linecap="round" stroke-linejoin="round"/>
  <path d="M16 21C16 19.4087 15.3679 17.8826 14.2426 16.7574C13.1174 15.6321 11.5913 15 10 15C8.4087 15 6.88258 15.6321 5.75736 16.7574C4.63214 17.8826 4 19.4087 4 21V23H16V21Z" stroke="#4A6741" stroke-width="2" stroke-linecap="round" stroke-linejoin="round"/>
  <path d="M28 23V21C27.9999 19.4087 27.3678 17.8826 26.2426 16.7574C25.1174 15.6321 23.5913 15 22 15" stroke="#4A6741" stroke-width="2" stroke-linecap="round" stroke-linejoin="round"/>
  <path d="M16 28C16 28 16 22 18 20C20 18 28 23 28 23" stroke="#4A6741" stroke-width="2" stroke-linecap="round" stroke-linejoin="round"/>
  <path d="M4 23C4 23 12 18 14 20C16 22 16 28 16 28" stroke="#4A6741" stroke-width="2" stroke-linecap="round" stroke-linejoin="round"/>
</svg>