<?xml version="1.0" encoding="UTF-8"?>
<svg width="32" height="32" viewBox="0 0 32 32" fill="none" xmlns="http://www.w3.org/2000/svg">
  <circle cx="16" cy="16" r="16" fill="#4A6741"/>
  <path d="M10 22C10 22 12 16 12 11C12 6 10.5 6 10 6C9.5 6 8 6 8 11C8 16 10 22 10 22Z" fill="#A67B5B"/>
  <path d="M16 22C16 22 18 16 18 11C18 6 16.5 6 16 6C15.5 6 14 6 14 11C14 16 16 22 16 22Z" fill="#A67B5B"/>
  <path d="M22 22C22 22 24 16 24 11C24 6 22.5 6 22 6C21.5 6 20 6 20 11C20 16 22 22 22 22Z" fill="#A67B5B"/>
  <path d="M12 6C12 6 13 8 16 8C19 8 20 6 20 6" stroke="#A67B5B" stroke-width="1.5"/>
  <path d="M8 4C8 4 9 5.5 10 5.5C11 5.5 12 4 12 4" stroke="#4A6741" stroke-width="1.5"/>
  <path d="M14 4C14 4 15 5.5 16 5.5C17 5.5 18 4 18 4" stroke="#4A6741" stroke-width="1.5"/>
  <path d="M20 4C20 4 21 5.5 22 5.5C23 5.5 24 4 24 4" stroke="#4A6741" stroke-width="1.5"/>
  <path d="M10 22C10 22 12 25 16 25C20 25 22 22 22 22" stroke="#A67B5B" stroke-width="1.5"/>
</svg>