<?xml version="1.0" encoding="UTF-8"?>
<svg width="40" height="40" viewBox="0 0 40 40" fill="none" xmlns="http://www.w3.org/2000/svg">
  <circle cx="20" cy="20" r="20" fill="#4A6741"/>
  <path d="M12 28C12 28 15 20 15 14C15 8 13 8 12 8C11 8 9 8 9 14C9 20 12 28 12 28Z" fill="#A67B5B"/>
  <path d="M20 28C20 28 23 20 23 14C23 8 21 8 20 8C19 8 17 8 17 14C17 20 20 28 20 28Z" fill="#A67B5B"/>
  <path d="M28 28C28 28 31 20 31 14C31 8 29 8 28 8C27 8 25 8 25 14C25 20 28 28 28 28Z" fill="#A67B5B"/>
  <path d="M15 8C15 8 16 11 20 11C24 11 25 8 25 8" stroke="#A67B5B" stroke-width="2"/>
  <path d="M9 5C9 5 10 7 12 7C14 7 15 5 15 5" stroke="#4A6741" stroke-width="2"/>
  <path d="M17 5C17 5 18 7 20 7C22 7 23 5 23 5" stroke="#4A6741" stroke-width="2"/>
  <path d="M25 5C25 5 26 7 28 7C30 7 31 5 31 5" stroke="#4A6741" stroke-width="2"/>
  <path d="M12 28C12 28 15 32 20 32C25 32 28 28 28 28" stroke="#A67B5B" stroke-width="2"/>
</svg>